<?xml version="1.0" encoding="utf-8"?>
<!-- Generator: Adobe Illustrator 20.1.0, SVG Export Plug-In . SVG Version: 6.00 Build 0)  -->
<svg version="1.1" id="Layer_1" xmlns:sketch="http://www.bohemiancoding.com/sketch/ns"
	 xmlns="http://www.w3.org/2000/svg" xmlns:xlink="http://www.w3.org/1999/xlink" x="0px" y="0px" viewBox="0 0 181 212"
	 style="enable-background:new 0 0 181 212;" xml:space="preserve">
<style type="text/css">
	.st0{fill:#808080;}
</style>
<title>platforms_logos</title>
<desc>Created with Sketch.</desc>
<g id="android_logo" transform="translate(333.000000, 4.000000)" sketch:type="MSShapeGroup">
	<path id="Oval" class="st0" d="M-300,65c0.1-20.2,12.6-37.8,30.8-46.6l0,0l-8.7-15.7c-0.5-0.9-0.2-2,0.7-2.5c0.9-0.5,2-0.2,2.5,0.7
		l8.8,15.9c7.1-2.9,15-4.6,23.4-4.6c8.5,0,16.6,1.7,23.9,4.8l9-16.1c0.5-0.9,1.6-1.2,2.5-0.7c0.9,0.5,1.2,1.6,0.7,2.5l-8.8,15.9l0,0
		c17.9,8.9,30.1,26.3,30.3,46.4H-300L-300,65z M-300,70v83.1c0,7.7,6.2,13.9,13.9,13.9h87.2c7.7,0,13.9-6.2,13.9-13.9V70H-300z
		 M-211,40c0-2.8-2.2-5-5-5s-5,2.2-5,5s2.2,5,5,5S-211,42.8-211,40z M-264,40c0-2.8-2.2-5-5-5s-5,2.2-5,5s2.2,5,5,5
		S-264,42.8-264,40z"/>
	<path id="c" class="st0" d="M-168,68c7.2,0,13,5.7,13,12.8v53.4c0,7.1-5.8,12.8-13,12.8c-7.2,0-13-5.7-13-12.8V80.8
		C-181,73.7-175.2,68-168,68z"/>
	<path id="c_1_" class="st0" d="M-265,129c7.2,0,13,5.7,13,12.8v53.4c0,7.1-5.8,12.8-13,12.8c-7.2,0-13-5.7-13-12.8v-53.4
		C-278,134.7-272.2,129-265,129z"/>
	<path id="c_2_" class="st0" d="M-317,68c7.2,0,13,5.7,13,12.8v53.4c0,7.1-5.8,12.8-13,12.8c-7.2,0-13-5.7-13-12.8V80.8
		C-330,73.7-324.2,68-317,68z"/>
	<path id="c_3_" class="st0" d="M-219,129c7.2,0,13,5.7,13,12.8v53.4c0,7.1-5.8,12.8-13,12.8c-7.2,0-13-5.7-13-12.8v-53.4
		C-232,134.7-226.2,129-219,129z"/>
</g>
</svg>
