<?xml version="1.0" encoding="utf-8"?>
<!-- Generator: Adobe Illustrator 20.1.0, SVG Export Plug-In . SVG Version: 6.00 Build 0)  -->
<svg version="1.1" id="Layer_1" xmlns:sketch="http://www.bohemiancoding.com/sketch/ns"
	 xmlns="http://www.w3.org/2000/svg" xmlns:xlink="http://www.w3.org/1999/xlink" x="0px" y="0px" viewBox="0 0 164 200.6"
	 style="enable-background:new 0 0 164 200.6;" xml:space="preserve">
<style type="text/css">
	.st0{fill:#808080;}
</style>
<title>platforms_logos</title>
<desc>Created with Sketch.</desc>
<g id="apple_logo" sketch:type="MSShapeGroup">
	<path id="Shape" class="st0" d="M135.8,106.1c0.3,30.2,26.5,40.3,26.8,40.4c-0.2,0.7-4.2,14.3-13.8,28.4
		c-8.3,12.2-17,24.3-30.6,24.5c-13.4,0.2-17.7-7.9-33-7.9c-15.3,0-20.1,7.7-32.7,8.2c-13.1,0.5-23.1-13.2-31.5-25.3
		C3.9,149.6-9.2,104.3,8.4,73.8c8.7-15.2,24.4-24.8,41.3-25c12.9-0.2,25.1,8.7,33,8.7c7.9,0,22.7-10.7,38.2-9.2
		c6.5,0.3,24.8,2.6,36.5,19.8C156.5,68.7,135.6,80.8,135.8,106.1 M110.7,31.9c7-8.4,11.7-20.2,10.4-31.9C111,0.4,98.9,6.7,91.7,15.1
		C85.2,22.6,79.5,34.6,81.1,46C92.3,46.9,103.7,40.3,110.7,31.9"/>
</g>
</svg>
