<?xml version="1.0" encoding="utf-8"?>
<!-- Generator: Adobe Illustrator 20.1.0, SVG Export Plug-In . SVG Version: 6.00 Build 0)  -->
<svg version="1.1" id="Layer_1" xmlns="http://www.w3.org/2000/svg" xmlns:xlink="http://www.w3.org/1999/xlink" x="0px" y="0px"
	 viewBox="0 0 64 64" style="enable-background:new 0 0 64 64;" xml:space="preserve">
<style type="text/css">
	.st0{fill:#808080;}
</style>
<path class="st0" d="M64,32C64,14.3,49.7,0,32,0S0,14.3,0,32s14.3,32,32,32S64,49.7,64,32z M31,47.6L16.4,34.1
	c-0.4-0.4-0.5-0.9-0.3-1.3c0.2-0.5,0.7-0.8,1.2-0.8H28V17.2c0-0.7,0.5-1.2,1.2-1.2h5.6c0.7,0,1.2,0.5,1.2,1.2V32h10.7
	c0.5,0,1,0.3,1.2,0.8c0.2,0.5,0.1,1-0.3,1.3L32.9,47.6C32.4,48.1,31.6,48.1,31,47.6z"/>
</svg>
