<?xml version="1.0" encoding="utf-8"?>
<!-- Generator: Adobe Illustrator 20.1.0, SVG Export Plug-In . SVG Version: 6.00 Build 0)  -->
<svg version="1.1" id="Layer_1" xmlns="http://www.w3.org/2000/svg" xmlns:xlink="http://www.w3.org/1999/xlink" x="0px" y="0px"
	 viewBox="0 0 30.8 30.8" style="enable-background:new 0 0 30.8 30.8;" xml:space="preserve">
<style type="text/css">
	.st0{fill:#808080;}
</style>
<path class="st0" d="M15.5,0.5c-8.3,0-15,6.7-15,15c0,6.6,4.3,12.2,10.3,14.2c0.8,0.1,1-0.3,1-0.7v-2.6c-4.2,0.9-5.1-2-5.1-2
	C6,22.7,5,22.2,5,22.2c-1.4-0.9,0.1-0.9,0.1-0.9c1.5,0.1,2.3,1.5,2.3,1.5c1.3,2.3,3.5,1.6,4.4,1.2c0.1-1,0.5-1.6,1-2
	C9.5,21.6,6,20.3,6,14.6c0-1.6,0.6-3,1.5-4c-0.2-0.4-0.7-1.9,0.1-4c0,0,1.3-0.4,4.1,1.5c1.2-0.3,2.5-0.5,3.8-0.5s2.6,0.2,3.8,0.5
	c2.9-1.9,4.1-1.5,4.1-1.5c0.8,2.1,0.3,3.6,0.1,4c1,1,1.5,2.4,1.5,4c0,5.8-3.5,7-6.8,7.4c0.5,0.5,1,1.4,1,2.8v4.1
	c0,0.4,0.3,0.9,1,0.7c6-2,10.2-7.6,10.2-14.2C30.5,7.2,23.8,0.5,15.5,0.5z"/>
</svg>
