<?xml version="1.0" encoding="utf-8"?>
<!-- Generator: Adobe Illustrator 20.1.0, SVG Export Plug-In . SVG Version: 6.00 Build 0)  -->
<svg version="1.1" id="Layer_1" xmlns="http://www.w3.org/2000/svg" xmlns:xlink="http://www.w3.org/1999/xlink" x="0px" y="0px"
	 viewBox="0 0 752 252" style="enable-background:new 0 0 752 252;" xml:space="preserve">
<style type="text/css">
	.st0{fill:#DC3C26;}
	.st1{fill:#00A04F;}
	.st2{fill:#FEBC11;}
	.st3{fill:#296B35;}
	.st4{fill:#273278;}
	.st5{fill:#0079C0;}
	.st6{fill:#FFCC04;}
	.st7{fill:#FFDD00;}
	.st8{fill:#FAA942;}
	.st9{fill:#83B5DA;}
	.st10{fill:#FFDF00;}
	.st11{fill:#E32226;}
	.st12{fill:#EF4136;}
	.st13{fill:#C0B199;}
	.st14{fill:#636363;}
	.st15{fill:#FFFFFF;}
</style>
<g>
	<path class="st0" d="M28.8,86.3c-8,11.4-11.3,22.5-8.1,31.8c4.2,12.2,10.5,26.8,14.7,39c-3.2-9.4-0.1-19,8-30.5L28.8,86.3z"/>
	<path class="st1" d="M152,200.8l-10.7-35.1c-19.9,7.2-41.6,9.4-52,10.1l12.9,34.9C117.6,209.3,134.6,206.1,152,200.8z"/>
	<path class="st2" d="M95.7,211.2L95.7,211.2l-12.7-35c0,0,2.3,0,6.2-0.3l-8.1-22.1c-16.5,1.3-32.6-1.2-45.5-6.2l24.1,65.6
		c10.9,3.6,27.5,3.5,44.1,2.3l-1.7-4.7C99.9,210.9,97.8,211.1,95.7,211.2z"/>
	<path class="st1" d="M95.7,211.2L95.7,211.2c2.1-0.1,4.2-0.3,6.4-0.5l-12.9-34.9c-3.9,0.3-6.2,0.3-6.2,0.3L95.7,211.2z"/>
	<path class="st3" d="M95.7,211.2L95.7,211.2c2.1-0.1,4.2-0.3,6.4-0.5l-12.9-34.9c-3.9,0.3-6.2,0.3-6.2,0.3L95.7,211.2z"/>
	<path class="st4" d="M153.5,103.1c15.8-5.4,29.8-8.1,41.2-7.8l0.3,0l-10.6-30.8l0.1,0c-11.8-1.3-26.7,0.5-43.3,5.2L153.5,103.1z"/>
	<path class="st5" d="M169.5,161c-11.3,5.3-23.7,10.1-37.3,14.1l12.1,34.4c19.8-5.9,37.7-13.7,52.5-22.2l0.1-0.1l-1.4-3.8
		c-4.6,3-9.6,5.9-14.9,8.6L169.5,161z"/>
	<path class="st6" d="M210.4,113.9l8.8,28.9c5.5-8,7.6-15.9,5.4-22.9l-10.7-35.1c2.4,8-0.6,17.1-8.1,26.4l0,0l1.8,5.8
		C208.6,116,209.5,115,210.4,113.9L210.4,113.9z"/>
	<path class="st7" d="M219.2,142.8c-0.8,1.1-1.6,2.2-2.4,3.3l-0.2,0.2l-8.9-29.3c-9.7,10.9-24.8,22.6-42,32.5h-0.2l4.1,11.4
		c5.2-2.5,10.2-5.1,14.9-7.8l11.2,30.2c12.3-7.9,22.1-16.5,28.7-25.2l-0.2,0.3L219.2,142.8z"/>
	<path class="st8" d="M216.8,146.1c0.9-1.1,1.7-2.2,2.4-3.3l-8.8-28.9l0,0c-0.8,1.1-1.8,2.1-2.7,3.2l8.9,29.3L216.8,146.1z"/>
	<path class="st5" d="M169.5,161l11.1,31c5.3-2.7,10.3-5.6,14.9-8.6l-11.2-30.2C179.7,155.9,174.8,158.5,169.5,161z"/>
	<path class="st3" d="M169.5,161l11.1,31c5.3-2.7,10.3-5.6,14.9-8.6l-11.2-30.2C179.7,155.9,174.8,158.5,169.5,161z"/>
	<path class="st9" d="M34,78.2c7.9-10.9,20.4-22.2,36.8-32.8L85,84.6l0.1-0.1c-16.3,10.5-29,21.8-36.9,32.6"/>
	<path class="st10" d="M137.9,90.2c15.8-6.5,32.2-10.7,44.6-12.9L162,20.1c-27.4,7.1-57.7,18-80.9,34.6l0,0l14,39.3
		c11-6.8,24.3-12.1,37.7-15.9L137.9,90.2z"/>
	<path class="st11" d="M101.6,112.2L95.1,94c-6.2,3.9-11.8,8.2-16.2,13l14.5,40.3c17.9-15.5,36.4-25.2,55.7-30.2l-11.3-26.8
		C124.5,95.7,111.5,103,101.6,112.2z"/>
	<path class="st10" d="M137.9,90.2l-5.1-12.1c-13.4,3.8-26.6,9.1-37.7,15.9l6.5,18.2C111.5,103,124.5,95.7,137.9,90.2z"/>
	<path class="st12" d="M137.9,90.2l-5.1-12.1c-13.4,3.8-26.6,9.1-37.7,15.9l6.5,18.2C111.5,103,124.5,95.7,137.9,90.2z"/>
	<path class="st13" d="M196.4,84.3c12.4,0.3,21.6,4.2,26,12.2l-11.2-29.6c-4.2-7.6-13-12-25-13.3L196.4,84.3z"/>
	<path class="st14" d="M49.8,197.2c-10.5-3.5-17.1-10.6-19.1-19l-10-35.4c2,8.4,5.3,14.3,15.8,17.8l0.1,0.1"/>
</g>
<g>
	<path class="st15" d="M321.6,102.8c0,9-3,15.8-8.9,20.6c-5.9,4.8-14.4,7.2-25.3,7.2h-9v32.1h-14.2V76.8h24.9
		c10.8,0,18.9,2.2,24.3,6.6C318.9,87.8,321.6,94.2,321.6,102.8z M278.4,118.7h7.5c7.3,0,12.6-1.3,16-3.8c3.4-2.5,5.1-6.4,5.1-11.7
		c0-4.9-1.5-8.6-4.6-11c-3-2.4-7.8-3.6-14.2-3.6h-9.8V118.7z"/>
	<path class="st15" d="M395.5,130c0,10.6-2.7,18.9-8.2,24.8c-5.5,5.9-13.1,8.9-22.9,8.9c-6.1,0-11.5-1.4-16.2-4.1
		c-4.7-2.7-8.3-6.7-10.8-11.8c-2.5-5.1-3.8-11.1-3.8-17.8c0-10.5,2.7-18.7,8.2-24.7c5.4-5.9,13.1-8.9,23-8.9c9.5,0,17,3,22.5,9.1
		C392.8,111.6,395.5,119.8,395.5,130z M347.8,130c0,15,5.6,22.5,16.8,22.5c11.1,0,16.6-7.5,16.6-22.5c0-14.8-5.6-22.2-16.7-22.2
		c-5.8,0-10.1,1.9-12.7,5.8C349.1,117.4,347.8,122.9,347.8,130z"/>
	<path class="st15" d="M425.4,162.6h-13.9V71.3h13.9V162.6z"/>
	<path class="st15" d="M435.4,97.7h15.2l13.3,36.8c2,5.2,3.4,10.2,4,14.8h0.5c0.4-2.2,1-4.8,2-7.8c0.9-3.1,6-17.7,15-43.8h15
		l-28,73.6c-5.1,13.5-13.6,20.3-25.5,20.3c-3.1,0-6.1-0.3-9-1v-10.9c2.1,0.5,4.5,0.7,7.2,0.7c6.7,0,11.4-3.9,14.2-11.6l2.4-6.1
		L435.4,97.7z"/>
	<path class="st15" d="M565.7,97.7v7.6l-11.2,2.1c1,1.4,1.9,3.1,2.5,5c0.7,2,1,4.1,1,6.3c0,6.7-2.3,12-7,15.8
		c-4.7,3.8-11.1,5.8-19.2,5.8c-2.1,0-4-0.2-5.7-0.5c-3,1.8-4.5,4-4.5,6.5c0,1.5,0.7,2.6,2.1,3.3c1.4,0.7,4,1.1,7.7,1.1h11.4
		c7.2,0,12.7,1.5,16.5,4.6c3.8,3.1,5.6,7.5,5.6,13.2c0,7.4-3.1,13-9.2,17c-6.1,4-15,6-26.5,6c-8.9,0-15.7-1.6-20.4-4.7
		c-4.7-3.1-7-7.6-7-13.4c0-4,1.3-7.3,3.8-10.1c2.5-2.7,6.1-4.6,10.7-5.7c-1.9-0.8-3.4-2-4.6-3.8c-1.2-1.7-1.8-3.6-1.8-5.5
		c0-2.4,0.7-4.5,2.1-6.2c1.4-1.7,3.4-3.3,6.2-5c-3.4-1.4-6.2-3.8-8.3-7.1c-2.1-3.3-3.2-7.1-3.2-11.5c0-7,2.2-12.5,6.7-16.4
		c4.5-3.9,10.9-5.8,19.2-5.8c1.9,0,3.8,0.1,5.8,0.4c2,0.3,3.6,0.5,4.6,0.8H565.7z M514.2,172.7c0,3,1.4,5.3,4.1,6.9
		c2.7,1.6,6.5,2.4,11.4,2.4c7.6,0,13.2-1.1,16.9-3.2c3.7-2.2,5.6-5,5.6-8.6c0-2.8-1-4.8-3-6c-2-1.2-5.8-1.8-11.3-1.8h-10.5
		c-4,0-7.2,0.9-9.5,2.8C515.4,167,514.2,169.6,514.2,172.7z M520.2,118.7c0,4.1,1.1,7.2,3.2,9.4c2.1,2.2,5.1,3.3,9.1,3.3
		c8.1,0,12.1-4.3,12.1-12.8c0-4.2-1-7.5-3-9.8c-2-2.3-5-3.4-9.1-3.4c-4,0-7.1,1.1-9.2,3.4C521.2,111.1,520.2,114.4,520.2,118.7z"/>
	<path class="st15" d="M591.7,162.6h-13.9V71.3h13.9V162.6z"/>
	<path class="st15" d="M669.7,130c0,10.6-2.7,18.9-8.2,24.8c-5.5,5.9-13.1,8.9-22.9,8.9c-6.1,0-11.5-1.4-16.2-4.1
		c-4.7-2.7-8.3-6.7-10.8-11.8c-2.5-5.1-3.8-11.1-3.8-17.8c0-10.5,2.7-18.7,8.2-24.7c5.4-5.9,13.1-8.9,23-8.9c9.5,0,17,3,22.5,9.1
		C667,111.6,669.7,119.8,669.7,130z M622.1,130c0,15,5.6,22.5,16.8,22.5c11.1,0,16.6-7.5,16.6-22.5c0-14.8-5.6-22.2-16.7-22.2
		c-5.8,0-10.1,1.9-12.7,5.8C623.4,117.4,622.1,122.9,622.1,130z"/>
	<path class="st15" d="M710.1,152.6c3.4,0,6.8-0.5,10.2-1.6v10.4c-1.5,0.7-3.5,1.2-6,1.7c-2.4,0.4-4.9,0.7-7.6,0.7
		c-13.2,0-19.8-6.9-19.8-20.7v-35h-8.9V102l9.6-5l4.7-13.7h8.6v14.4h18.7v10.4H701v34.8c0,3.3,0.8,5.8,2.5,7.4
		C705.2,151.9,707.4,152.6,710.1,152.6z"/>
</g>
</svg>
